<?xml version="1.0" encoding="UTF-8" standalone="no"?>
<!DOCTYPE svg PUBLIC "-//W3C//DTD SVG 1.1//EN"
 "http://www.w3.org/Graphics/SVG/1.1/DTD/svg11.dtd">
<!-- Generated by graphviz version 12.2.1 (20241206.2353)
 -->
<!-- Title: G Pages: 1 -->
<svg width="341pt" height="667pt"
 viewBox="0.00 0.00 341.00 666.60" xmlns="http://www.w3.org/2000/svg" xmlns:xlink="http://www.w3.org/1999/xlink">
<g id="graph0" class="graph" transform="scale(1 1) rotate(0) translate(4 662.6)">
<title>G</title>
<polygon fill="white" stroke="none" points="-4,4 -4,-662.6 337,-662.6 337,4 -4,4"/>
<!-- chapter1 -->
<g id="node1" class="node">
<title>chapter1</title>
<polygon fill="none" stroke="black" points="15.3,-528.5 15.3,-658.1 317.7,-658.1 317.7,-528.5 15.3,-528.5"/>
<text text-anchor="middle" x="72.92" y="-595" font-family="SimSun" font-size="14.00">绪</text>
<text text-anchor="middle" x="72.92" y="-580" font-family="SimSun" font-size="14.00">论</text>
<polyline fill="none" stroke="black" points="130.55,-528.5 130.55,-658.1"/>
<text text-anchor="middle" x="223.8" y="-636.3" font-family="SimSun" font-size="14.00">背景与意义</text>
<polyline fill="none" stroke="black" points="130.55,-626.1 317.05,-626.1"/>
<text text-anchor="middle" x="223.8" y="-604.3" font-family="SimSun" font-size="14.00">研究现状分析</text>
<polyline fill="none" stroke="black" points="130.55,-594.1 317.05,-594.1"/>
<text text-anchor="middle" x="223.8" y="-571.8" font-family="SimSun" font-size="14.00">现有方法不足</text>
<polyline fill="none" stroke="black" points="130.55,-561.1 317.05,-561.1"/>
<text text-anchor="middle" x="223.8" y="-539.3" font-family="SimSun" font-size="14.00">研究内容框架</text>
</g>
<!-- chapter2 -->
<g id="node2" class="node">
<title>chapter2</title>
<polygon fill="none" stroke="black" points="22.5,-436.5 22.5,-505.5 310.5,-505.5 310.5,-436.5 22.5,-436.5"/>
<text text-anchor="middle" x="73.12" y="-487.7" font-family="SimSun" font-size="14.00">基</text>
<text text-anchor="middle" x="73.12" y="-472.7" font-family="SimSun" font-size="14.00">础</text>
<text text-anchor="middle" x="73.12" y="-457.7" font-family="SimSun" font-size="14.00">知</text>
<text text-anchor="middle" x="73.12" y="-442.7" font-family="SimSun" font-size="14.00">识</text>
<polyline fill="none" stroke="black" points="123.75,-436.5 123.75,-505.5"/>
<text text-anchor="middle" x="217.12" y="-488.2" font-family="SimSun" font-size="14.00">多目标优化算法</text>
<polyline fill="none" stroke="black" points="123.75,-482.5 310.5,-482.5"/>
<text text-anchor="middle" x="217.12" y="-465.2" font-family="SimSun" font-size="14.00">混合云架构特点</text>
<polyline fill="none" stroke="black" points="123.75,-459.5 310.5,-459.5"/>
<text text-anchor="middle" x="217.12" y="-442.2" font-family="SimSun" font-size="14.00">隐私保护技术</text>
</g>
<!-- chapter1&#45;&gt;chapter2 -->
<g id="edge1" class="edge">
<title>chapter1&#45;&gt;chapter2</title>
<path fill="none" stroke="black" d="M166.5,-528.28C166.5,-524.52 166.5,-520.79 166.5,-517.14"/>
<polygon fill="black" stroke="black" points="170,-517.33 166.5,-507.33 163,-517.33 170,-517.33"/>
</g>
<!-- chapter3 -->
<g id="node3" class="node">
<title>chapter3</title>
<polygon fill="none" stroke="black" points="0,-321.5 0,-413.5 333,-413.5 333,-321.5 0,-321.5"/>
<text text-anchor="middle" x="36.5" y="-361.7" font-family="SimSun" font-size="14.00">模型构建</text>
<polyline fill="none" stroke="black" points="73,-321.5 73,-413.5"/>
<text text-anchor="middle" x="130.88" y="-396.2" font-family="SimSun" font-size="14.00">混合云资源模型</text>
<polyline fill="none" stroke="black" points="73,-390.5 188.75,-390.5"/>
<text text-anchor="middle" x="130.88" y="-373.2" font-family="SimSun" font-size="14.00">动态任务模型</text>
<polyline fill="none" stroke="black" points="73,-367.5 188.75,-367.5"/>
<text text-anchor="middle" x="130.88" y="-350.2" font-family="SimSun" font-size="14.00">隐私标签机制</text>
<polyline fill="none" stroke="black" points="73,-344.5 188.75,-344.5"/>
<text text-anchor="middle" x="130.88" y="-327.2" font-family="SimSun" font-size="14.00">安全量化评估</text>
<polyline fill="none" stroke="black" points="188.75,-321.5 188.75,-413.5"/>
<text text-anchor="middle" x="260.88" y="-361.7" font-family="SimSun" font-size="14.00">多目标优化问题建模</text>
</g>
<!-- chapter2&#45;&gt;chapter3 -->
<g id="edge2" class="edge">
<title>chapter2&#45;&gt;chapter3</title>
<path fill="none" stroke="black" d="M166.5,-436.2C166.5,-432.63 166.5,-428.92 166.5,-425.18"/>
<polygon fill="black" stroke="black" points="170,-425.41 166.5,-415.41 163,-425.41 170,-425.41"/>
</g>
<!-- chapter4 -->
<g id="node4" class="node">
<title>chapter4</title>
<polygon fill="none" stroke="black" points="7.12,-206.5 7.12,-298.5 325.88,-298.5 325.88,-206.5 7.12,-206.5"/>
<text text-anchor="middle" x="43.62" y="-246.7" font-family="SimSun" font-size="14.00">算法设计</text>
<polyline fill="none" stroke="black" points="80.12,-206.5 80.12,-298.5"/>
<text text-anchor="middle" x="145.12" y="-281.2" font-family="SimSun" font-size="14.00">OW&#45;FF卸载算法</text>
<polyline fill="none" stroke="black" points="80.12,-275.5 210.12,-275.5"/>
<text text-anchor="middle" x="145.12" y="-258.2" font-family="SimSun" font-size="14.00">混合编码方案</text>
<polyline fill="none" stroke="black" points="80.12,-252.5 210.12,-252.5"/>
<text text-anchor="middle" x="145.12" y="-235.2" font-family="SimSun" font-size="14.00">动态遗传操作算子</text>
<polyline fill="none" stroke="black" points="80.12,-229.5 210.12,-229.5"/>
<text text-anchor="middle" x="145.12" y="-212.2" font-family="SimSun" font-size="14.00">偏好精英选择策略</text>
<polyline fill="none" stroke="black" points="210.12,-206.5 210.12,-298.5"/>
<text text-anchor="middle" x="268" y="-246.7" font-family="SimSun" font-size="14.00">多目标优化算法</text>
</g>
<!-- chapter3&#45;&gt;chapter4 -->
<g id="edge3" class="edge">
<title>chapter3&#45;&gt;chapter4</title>
<path fill="none" stroke="black" d="M166.5,-321.19C166.5,-317.51 166.5,-313.76 166.5,-310.01"/>
<polygon fill="black" stroke="black" points="170,-310.33 166.5,-300.33 163,-310.33 170,-310.33"/>
</g>
<!-- chapter5 -->
<g id="node5" class="node">
<title>chapter5</title>
<polygon fill="none" stroke="black" points="22.5,-91.5 22.5,-183.5 310.5,-183.5 310.5,-91.5 22.5,-91.5"/>
<text text-anchor="middle" x="73.12" y="-154.2" font-family="SimSun" font-size="14.00">实</text>
<text text-anchor="middle" x="73.12" y="-139.2" font-family="SimSun" font-size="14.00">验</text>
<text text-anchor="middle" x="73.12" y="-124.2" font-family="SimSun" font-size="14.00">分</text>
<text text-anchor="middle" x="73.12" y="-109.2" font-family="SimSun" font-size="14.00">析</text>
<polyline fill="none" stroke="black" points="123.75,-91.5 123.75,-183.5"/>
<text text-anchor="middle" x="217.12" y="-166.2" font-family="SimSun" font-size="14.00">Pareto前沿对比</text>
<polyline fill="none" stroke="black" points="123.75,-160.5 310.5,-160.5"/>
<text text-anchor="middle" x="217.12" y="-143.2" font-family="SimSun" font-size="14.00">收敛性分析</text>
<polyline fill="none" stroke="black" points="123.75,-137.5 310.5,-137.5"/>
<text text-anchor="middle" x="217.12" y="-120.2" font-family="SimSun" font-size="14.00">隐私参数敏感度</text>
<polyline fill="none" stroke="black" points="123.75,-114.5 310.5,-114.5"/>
<text text-anchor="middle" x="217.12" y="-97.2" font-family="SimSun" font-size="14.00">跨平台效能验证</text>
</g>
<!-- chapter4&#45;&gt;chapter5 -->
<g id="edge4" class="edge">
<title>chapter4&#45;&gt;chapter5</title>
<path fill="none" stroke="black" d="M166.5,-206.19C166.5,-202.51 166.5,-198.76 166.5,-195.01"/>
<polygon fill="black" stroke="black" points="170,-195.33 166.5,-185.33 163,-195.33 170,-195.33"/>
</g>
<!-- chapter6 -->
<g id="node6" class="node">
<title>chapter6</title>
<polygon fill="none" stroke="black" points="22.5,-0.5 22.5,-68.5 310.5,-68.5 310.5,-0.5 22.5,-0.5"/>
<text text-anchor="middle" x="76.62" y="-51.2" font-family="SimSun" font-size="14.00">总</text>
<text text-anchor="middle" x="76.62" y="-36.2" font-family="SimSun" font-size="14.00">结</text>
<text text-anchor="middle" x="76.62" y="-21.2" font-family="SimSun" font-size="14.00">展</text>
<text text-anchor="middle" x="76.62" y="-6.2" font-family="SimSun" font-size="14.00">望</text>
<polyline fill="none" stroke="black" points="130.75,-0.5 130.75,-68.5"/>
<text text-anchor="middle" x="220.5" y="-45.7" font-family="SimSun" font-size="14.00">研究成果总结</text>
<polyline fill="none" stroke="black" points="130.75,-34.5 310.25,-34.5"/>
<text text-anchor="middle" x="220.5" y="-11.7" font-family="SimSun" font-size="14.00">未来工作展望</text>
</g>
<!-- chapter5&#45;&gt;chapter6 -->
<g id="edge5" class="edge">
<title>chapter5&#45;&gt;chapter6</title>
<path fill="none" stroke="black" d="M166.5,-91.02C166.5,-87.42 166.5,-83.79 166.5,-80.19"/>
<polygon fill="black" stroke="black" points="170,-80.44 166.5,-70.44 163,-80.44 170,-80.44"/>
</g>
</g>
</svg>
