<?xml version="1.0" encoding="utf-8" standalone="no"?>
<!DOCTYPE svg PUBLIC "-//W3C//DTD SVG 1.1//EN"
  "http://www.w3.org/Graphics/SVG/1.1/DTD/svg11.dtd">
<svg xmlns:xlink="http://www.w3.org/1999/xlink" width="209.220339pt" height="155.3985pt" viewBox="0 0 209.220339 155.3985" xmlns="http://www.w3.org/2000/svg" version="1.1">
 <metadata>
  <rdf:RDF xmlns:dc="http://purl.org/dc/elements/1.1/" xmlns:cc="http://creativecommons.org/ns#" xmlns:rdf="http://www.w3.org/1999/02/22-rdf-syntax-ns#">
   <cc:Work>
    <dc:type rdf:resource="http://purl.org/dc/dcmitype/StillImage"/>
    <dc:date>2025-02-21T20:48:46.390686</dc:date>
    <dc:format>image/svg+xml</dc:format>
    <dc:creator>
     <cc:Agent>
      <dc:title>Matplotlib v3.10.0, https://matplotlib.org/</dc:title>
     </cc:Agent>
    </dc:creator>
   </cc:Work>
  </rdf:RDF>
 </metadata>
 <defs>
  <style type="text/css">*{stroke-linejoin: round; stroke-linecap: butt}</style>
 </defs>
 <g id="figure_1">
  <g id="patch_1">
   <path d="M 0 155.3985 
L 209.220339 155.3985 
L 209.220339 0 
L 0 0 
z
" style="fill: #ffffff"/>
  </g>
  <g id="axes_1">
   <g id="patch_2">
    <path d="M 40.240625 126.261 
L 204.850625 126.261 
L 204.850625 3.6 
L 40.240625 3.6 
z
" style="fill: #ffffff"/>
   </g>
   <g id="matplotlib.axis_1">
    <g id="xtick_1">
     <g id="line2d_1">
      <defs>
       <path id="m4bcea0dfa8" d="M 0 0 
L 0 -3 
" style="stroke: #000000; stroke-width: 0.5"/>
      </defs>
      <g>
       <use xlink:href="#m4bcea0dfa8" x="47.722898" y="126.261" style="stroke: #000000; stroke-width: 0.5"/>
      </g>
     </g>
     <g id="line2d_2">
      <defs>
       <path id="mae178e3a44" d="M 0 0 
L 0 3 
" style="stroke: #000000; stroke-width: 0.5"/>
      </defs>
      <g>
       <use xlink:href="#mae178e3a44" x="47.722898" y="3.6" style="stroke: #000000; stroke-width: 0.5"/>
      </g>
     </g>
     <g id="text_1">
      <!-- $\mathdefault{0}$ -->
      <g transform="translate(45.222898 136.909438) scale(0.1 -0.1)">
       <defs>
        <path id="SimSun-30" d="M 1600 4225 
Q 1250 4225 1012 3687 
Q 775 3150 775 2250 
Q 775 1300 1012 775 
Q 1250 250 1600 250 
Q 1975 250 2187 775 
Q 2400 1300 2400 2250 
Q 2400 3150 2200 3687 
Q 2000 4225 1600 4225 
z
M 1600 50 
Q 1050 50 675 625 
Q 300 1200 300 2250 
Q 300 3225 662 3825 
Q 1025 4425 1600 4425 
Q 2150 4425 2512 3850 
Q 2875 3275 2875 2250 
Q 2875 1225 2512 637 
Q 2150 50 1600 50 
z
" transform="scale(0.015625)"/>
       </defs>
       <use xlink:href="#SimSun-30" transform="translate(0 0.859375)"/>
      </g>
     </g>
    </g>
    <g id="xtick_2">
     <g id="line2d_3">
      <g>
       <use xlink:href="#m4bcea0dfa8" x="85.322258" y="126.261" style="stroke: #000000; stroke-width: 0.5"/>
      </g>
     </g>
     <g id="line2d_4">
      <g>
       <use xlink:href="#mae178e3a44" x="85.322258" y="3.6" style="stroke: #000000; stroke-width: 0.5"/>
      </g>
     </g>
     <g id="text_2">
      <!-- $\mathdefault{50}$ -->
      <g transform="translate(80.322258 136.909438) scale(0.1 -0.1)">
       <defs>
        <path id="SimSun-35" d="M 1725 2850 
Q 2200 2850 2500 2487 
Q 2800 2125 2800 1525 
Q 2800 850 2487 450 
Q 2175 50 1525 50 
Q 1075 50 725 312 
Q 375 575 375 950 
Q 375 1100 462 1212 
Q 550 1325 700 1325 
Q 850 1325 900 1225 
Q 950 1125 950 1050 
Q 950 900 875 825 
Q 800 725 800 625 
Q 800 425 1037 325 
Q 1275 225 1550 225 
Q 1950 225 2162 550 
Q 2375 875 2375 1475 
Q 2375 1975 2187 2287 
Q 2000 2600 1625 2600 
Q 1350 2600 1150 2500 
Q 950 2400 775 2075 
L 550 2100 
L 675 4375 
L 2725 4375 
L 2650 4000 
L 850 4000 
L 750 2350 
Q 1000 2700 1237 2775 
Q 1475 2850 1725 2850 
z
" transform="scale(0.015625)"/>
       </defs>
       <use xlink:href="#SimSun-35" transform="translate(0 0.859375)"/>
       <use xlink:href="#SimSun-30" transform="translate(50 0.859375)"/>
      </g>
     </g>
    </g>
    <g id="xtick_3">
     <g id="line2d_5">
      <g>
       <use xlink:href="#m4bcea0dfa8" x="122.921619" y="126.261" style="stroke: #000000; stroke-width: 0.5"/>
      </g>
     </g>
     <g id="line2d_6">
      <g>
       <use xlink:href="#mae178e3a44" x="122.921619" y="3.6" style="stroke: #000000; stroke-width: 0.5"/>
      </g>
     </g>
     <g id="text_3">
      <!-- $\mathdefault{100}$ -->
      <g transform="translate(115.421619 136.909438) scale(0.1 -0.1)">
       <defs>
        <path id="SimSun-31" d="M 1825 4450 
L 1825 650 
Q 1825 450 1950 350 
Q 2075 250 2300 250 
L 2550 250 
L 2550 100 
L 725 100 
L 725 250 
L 950 250 
Q 1200 250 1312 350 
Q 1425 450 1425 650 
L 1425 3675 
Q 1425 3775 1362 3837 
Q 1300 3900 1175 3900 
L 725 3900 
L 725 4050 
L 950 4050 
Q 1250 4050 1437 4150 
Q 1625 4250 1725 4450 
L 1825 4450 
z
" transform="scale(0.015625)"/>
       </defs>
       <use xlink:href="#SimSun-31" transform="translate(0 0.46875)"/>
       <use xlink:href="#SimSun-30" transform="translate(50 0.46875)"/>
       <use xlink:href="#SimSun-30" transform="translate(100 0.46875)"/>
      </g>
     </g>
    </g>
    <g id="xtick_4">
     <g id="line2d_7">
      <g>
       <use xlink:href="#m4bcea0dfa8" x="160.520979" y="126.261" style="stroke: #000000; stroke-width: 0.5"/>
      </g>
     </g>
     <g id="line2d_8">
      <g>
       <use xlink:href="#mae178e3a44" x="160.520979" y="3.6" style="stroke: #000000; stroke-width: 0.5"/>
      </g>
     </g>
     <g id="text_4">
      <!-- $\mathdefault{150}$ -->
      <g transform="translate(153.020979 136.909438) scale(0.1 -0.1)">
       <use xlink:href="#SimSun-31" transform="translate(0 0.46875)"/>
       <use xlink:href="#SimSun-35" transform="translate(50 0.46875)"/>
       <use xlink:href="#SimSun-30" transform="translate(100 0.46875)"/>
      </g>
     </g>
    </g>
    <g id="xtick_5">
     <g id="line2d_9">
      <g>
       <use xlink:href="#m4bcea0dfa8" x="198.120339" y="126.261" style="stroke: #000000; stroke-width: 0.5"/>
      </g>
     </g>
     <g id="line2d_10">
      <g>
       <use xlink:href="#mae178e3a44" x="198.120339" y="3.6" style="stroke: #000000; stroke-width: 0.5"/>
      </g>
     </g>
     <g id="text_5">
      <!-- $\mathdefault{200}$ -->
      <g transform="translate(190.620339 136.909438) scale(0.1 -0.1)">
       <defs>
        <path id="SimSun-32" d="M 2325 3325 
Q 2325 3775 2125 4012 
Q 1925 4250 1525 4250 
Q 1225 4250 1012 4087 
Q 800 3925 800 3675 
Q 800 3525 900 3425 
Q 975 3325 975 3225 
Q 975 3100 912 3037 
Q 850 2975 725 2975 
Q 575 2975 487 3062 
Q 400 3150 400 3350 
Q 400 3875 775 4150 
Q 1150 4425 1575 4425 
Q 2175 4425 2462 4125 
Q 2750 3825 2750 3375 
Q 2750 3075 2612 2775 
Q 2475 2475 2175 2200 
Q 1450 1500 1062 1062 
Q 675 625 600 475 
L 2075 475 
Q 2300 475 2450 650 
Q 2600 825 2650 1175 
L 2800 1175 
L 2650 100 
L 325 100 
L 325 425 
Q 450 650 737 1000 
Q 1025 1350 1500 1825 
Q 1925 2250 2125 2625 
Q 2325 3000 2325 3325 
z
" transform="scale(0.015625)"/>
       </defs>
       <use xlink:href="#SimSun-32" transform="translate(0 0.859375)"/>
       <use xlink:href="#SimSun-30" transform="translate(50 0.859375)"/>
       <use xlink:href="#SimSun-30" transform="translate(100 0.859375)"/>
      </g>
     </g>
    </g>
    <g id="xtick_6">
     <g id="line2d_11">
      <defs>
       <path id="m2b0599800a" d="M 0 0 
L 0 -1.5 
" style="stroke: #000000; stroke-width: 0.5"/>
      </defs>
      <g>
       <use xlink:href="#m2b0599800a" x="55.24277" y="126.261" style="stroke: #000000; stroke-width: 0.5"/>
      </g>
     </g>
     <g id="line2d_12">
      <defs>
       <path id="mea608a55c3" d="M 0 0 
L 0 1.5 
" style="stroke: #000000; stroke-width: 0.5"/>
      </defs>
      <g>
       <use xlink:href="#mea608a55c3" x="55.24277" y="3.6" style="stroke: #000000; stroke-width: 0.5"/>
      </g>
     </g>
    </g>
    <g id="xtick_7">
     <g id="line2d_13">
      <g>
       <use xlink:href="#m2b0599800a" x="62.762642" y="126.261" style="stroke: #000000; stroke-width: 0.5"/>
      </g>
     </g>
     <g id="line2d_14">
      <g>
       <use xlink:href="#mea608a55c3" x="62.762642" y="3.6" style="stroke: #000000; stroke-width: 0.5"/>
      </g>
     </g>
    </g>
    <g id="xtick_8">
     <g id="line2d_15">
      <g>
       <use xlink:href="#m2b0599800a" x="70.282514" y="126.261" style="stroke: #000000; stroke-width: 0.5"/>
      </g>
     </g>
     <g id="line2d_16">
      <g>
       <use xlink:href="#mea608a55c3" x="70.282514" y="3.6" style="stroke: #000000; stroke-width: 0.5"/>
      </g>
     </g>
    </g>
    <g id="xtick_9">
     <g id="line2d_17">
      <g>
       <use xlink:href="#m2b0599800a" x="77.802386" y="126.261" style="stroke: #000000; stroke-width: 0.5"/>
      </g>
     </g>
     <g id="line2d_18">
      <g>
       <use xlink:href="#mea608a55c3" x="77.802386" y="3.6" style="stroke: #000000; stroke-width: 0.5"/>
      </g>
     </g>
    </g>
    <g id="xtick_10">
     <g id="line2d_19">
      <g>
       <use xlink:href="#m2b0599800a" x="92.84213" y="126.261" style="stroke: #000000; stroke-width: 0.5"/>
      </g>
     </g>
     <g id="line2d_20">
      <g>
       <use xlink:href="#mea608a55c3" x="92.84213" y="3.6" style="stroke: #000000; stroke-width: 0.5"/>
      </g>
     </g>
    </g>
    <g id="xtick_11">
     <g id="line2d_21">
      <g>
       <use xlink:href="#m2b0599800a" x="100.362002" y="126.261" style="stroke: #000000; stroke-width: 0.5"/>
      </g>
     </g>
     <g id="line2d_22">
      <g>
       <use xlink:href="#mea608a55c3" x="100.362002" y="3.6" style="stroke: #000000; stroke-width: 0.5"/>
      </g>
     </g>
    </g>
    <g id="xtick_12">
     <g id="line2d_23">
      <g>
       <use xlink:href="#m2b0599800a" x="107.881874" y="126.261" style="stroke: #000000; stroke-width: 0.5"/>
      </g>
     </g>
     <g id="line2d_24">
      <g>
       <use xlink:href="#mea608a55c3" x="107.881874" y="3.6" style="stroke: #000000; stroke-width: 0.5"/>
      </g>
     </g>
    </g>
    <g id="xtick_13">
     <g id="line2d_25">
      <g>
       <use xlink:href="#m2b0599800a" x="115.401747" y="126.261" style="stroke: #000000; stroke-width: 0.5"/>
      </g>
     </g>
     <g id="line2d_26">
      <g>
       <use xlink:href="#mea608a55c3" x="115.401747" y="3.6" style="stroke: #000000; stroke-width: 0.5"/>
      </g>
     </g>
    </g>
    <g id="xtick_14">
     <g id="line2d_27">
      <g>
       <use xlink:href="#m2b0599800a" x="130.441491" y="126.261" style="stroke: #000000; stroke-width: 0.5"/>
      </g>
     </g>
     <g id="line2d_28">
      <g>
       <use xlink:href="#mea608a55c3" x="130.441491" y="3.6" style="stroke: #000000; stroke-width: 0.5"/>
      </g>
     </g>
    </g>
    <g id="xtick_15">
     <g id="line2d_29">
      <g>
       <use xlink:href="#m2b0599800a" x="137.961363" y="126.261" style="stroke: #000000; stroke-width: 0.5"/>
      </g>
     </g>
     <g id="line2d_30">
      <g>
       <use xlink:href="#mea608a55c3" x="137.961363" y="3.6" style="stroke: #000000; stroke-width: 0.5"/>
      </g>
     </g>
    </g>
    <g id="xtick_16">
     <g id="line2d_31">
      <g>
       <use xlink:href="#m2b0599800a" x="145.481235" y="126.261" style="stroke: #000000; stroke-width: 0.5"/>
      </g>
     </g>
     <g id="line2d_32">
      <g>
       <use xlink:href="#mea608a55c3" x="145.481235" y="3.6" style="stroke: #000000; stroke-width: 0.5"/>
      </g>
     </g>
    </g>
    <g id="xtick_17">
     <g id="line2d_33">
      <g>
       <use xlink:href="#m2b0599800a" x="153.001107" y="126.261" style="stroke: #000000; stroke-width: 0.5"/>
      </g>
     </g>
     <g id="line2d_34">
      <g>
       <use xlink:href="#mea608a55c3" x="153.001107" y="3.6" style="stroke: #000000; stroke-width: 0.5"/>
      </g>
     </g>
    </g>
    <g id="xtick_18">
     <g id="line2d_35">
      <g>
       <use xlink:href="#m2b0599800a" x="168.040851" y="126.261" style="stroke: #000000; stroke-width: 0.5"/>
      </g>
     </g>
     <g id="line2d_36">
      <g>
       <use xlink:href="#mea608a55c3" x="168.040851" y="3.6" style="stroke: #000000; stroke-width: 0.5"/>
      </g>
     </g>
    </g>
    <g id="xtick_19">
     <g id="line2d_37">
      <g>
       <use xlink:href="#m2b0599800a" x="175.560723" y="126.261" style="stroke: #000000; stroke-width: 0.5"/>
      </g>
     </g>
     <g id="line2d_38">
      <g>
       <use xlink:href="#mea608a55c3" x="175.560723" y="3.6" style="stroke: #000000; stroke-width: 0.5"/>
      </g>
     </g>
    </g>
    <g id="xtick_20">
     <g id="line2d_39">
      <g>
       <use xlink:href="#m2b0599800a" x="183.080595" y="126.261" style="stroke: #000000; stroke-width: 0.5"/>
      </g>
     </g>
     <g id="line2d_40">
      <g>
       <use xlink:href="#mea608a55c3" x="183.080595" y="3.6" style="stroke: #000000; stroke-width: 0.5"/>
      </g>
     </g>
    </g>
    <g id="xtick_21">
     <g id="line2d_41">
      <g>
       <use xlink:href="#m2b0599800a" x="190.600467" y="126.261" style="stroke: #000000; stroke-width: 0.5"/>
      </g>
     </g>
     <g id="line2d_42">
      <g>
       <use xlink:href="#mea608a55c3" x="190.600467" y="3.6" style="stroke: #000000; stroke-width: 0.5"/>
      </g>
     </g>
    </g>
    <g id="text_6">
     <!-- 函数评估次数 ($\times 10^2$) -->
     <g transform="translate(73.845625 150.509438) scale(0.1 -0.1)">
      <defs>
       <path id="SimSun-51fd" d="M 3050 2275 
L 3050 3000 
Q 3050 3450 3025 3800 
L 3275 3625 
L 4450 4475 
L 1650 4475 
Q 1325 4475 1050 4400 
L 825 4625 
L 4450 4625 
L 4775 4875 
L 5150 4375 
Q 4875 4325 4550 4175 
Q 4225 4025 3400 3550 
L 3550 3450 
L 3375 3325 
L 3375 2400 
Q 4250 3225 4475 3600 
L 4875 3150 
L 4625 3125 
Q 3625 2425 3400 2275 
Q 4575 1675 4687 1487 
Q 4800 1300 4800 1150 
Q 4800 1025 4750 925 
Q 4700 825 4675 825 
Q 4575 825 4375 1150 
Q 4075 1600 3375 2150 
L 3375 725 
Q 3375 350 2875 150 
Q 2850 450 2200 650 
L 2200 750 
Q 2800 675 2925 700 
Q 3050 725 3050 850 
L 3050 2100 
Q 1850 1300 1625 1025 
L 1275 1400 
Q 1575 1475 2087 1725 
Q 2600 1975 3050 2275 
z
M 1700 3475 
L 1775 3550 
Q 2350 3200 2475 3025 
Q 2600 2850 2600 2775 
Q 2600 2650 2500 2525 
Q 2400 2400 2350 2400 
Q 2275 2400 2225 2575 
Q 2150 2875 1700 3475 
z
M 5150 0 
L 5150 2175 
Q 5150 2725 5125 3325 
L 5725 3050 
L 5500 2850 
L 5500 525 
Q 5500 100 5525 -400 
L 5150 -600 
L 5150 -150 
L 1250 -150 
L 1000 -375 
L 675 -50 
L 875 125 
L 875 2375 
Q 875 2800 850 3425 
L 1450 3150 
L 1225 2975 
L 1225 0 
L 5150 0 
z
" transform="scale(0.015625)"/>
       <path id="SimSun-6570" d="M 1875 1525 
Q 1675 1200 1500 900 
Q 1825 825 2275 725 
Q 2500 975 2725 1525 
L 1875 1525 
z
M 850 4900 
Q 1325 4600 1425 4450 
Q 1525 4300 1525 4225 
Q 1525 4100 1437 3975 
Q 1350 3850 1300 3850 
Q 1225 3850 1150 4100 
Q 1050 4450 775 4850 
L 850 4900 
z
M 3000 4975 
L 3450 4675 
Q 3250 4625 3100 4425 
Q 2925 4225 2525 3825 
L 2450 3875 
Q 2925 4625 3000 4975 
z
M 1875 5250 
L 2425 5000 
L 2225 4825 
L 2225 3675 
L 2850 3675 
L 3125 3950 
L 3550 3525 
L 2225 3525 
L 2225 3300 
Q 2800 3175 2937 3062 
Q 3075 2950 3075 2775 
Q 3075 2700 3050 2587 
Q 3025 2475 2975 2475 
Q 2925 2475 2800 2650 
Q 2600 2925 2225 3175 
L 2225 2400 
L 1925 2200 
L 2275 2050 
Q 2150 2000 1950 1675 
L 2725 1675 
L 2900 1900 
L 3275 1575 
L 3050 1450 
Q 2800 875 2600 650 
Q 3000 550 3137 437 
Q 3275 325 3275 150 
Q 3275 -25 3200 -25 
Q 3125 -25 3025 75 
Q 2750 275 2400 425 
Q 1525 -275 325 -500 
L 300 -425 
Q 1450 -50 2100 550 
Q 1600 725 1125 800 
Q 1225 950 1525 1525 
L 1200 1525 
Q 875 1525 600 1450 
L 375 1675 
L 1575 1675 
Q 1675 1925 1775 2275 
L 1900 2225 
L 1900 3250 
Q 1225 2475 350 2050 
L 300 2125 
Q 1225 2775 1700 3525 
L 1250 3525 
Q 925 3525 650 3450 
L 425 3675 
L 1900 3675 
Q 1900 4575 1875 5250 
z
M 3925 3525 
Q 4050 2075 4525 1100 
Q 4925 1950 5025 3525 
L 3925 3525 
z
M 4050 5250 
L 4625 4925 
Q 4425 4850 4325 4625 
Q 4225 4400 3950 3675 
L 5375 3675 
L 5675 3975 
L 6125 3525 
L 5400 3525 
Q 5250 1675 4750 775 
Q 5325 75 6100 -100 
L 6100 -200 
Q 5625 -275 5600 -500 
Q 4950 -50 4525 525 
Q 3700 -275 2550 -650 
L 2500 -575 
Q 3650 -50 4325 800 
Q 3850 1975 3825 3375 
Q 3575 2725 3100 2150 
L 3025 2200 
Q 3625 3200 4050 5250 
z
" transform="scale(0.015625)"/>
       <path id="SimSun-8bc4" d="M 750 4925 
L 825 4975 
Q 1150 4725 1375 4500 
Q 1600 4275 1587 4087 
Q 1575 3900 1487 3812 
Q 1400 3725 1375 3725 
Q 1275 3725 1200 4025 
Q 1100 4425 750 4925 
z
M 225 2900 
L 1250 2900 
L 1425 3175 
L 1800 2875 
L 1625 2675 
L 1625 275 
L 2875 1450 
L 2950 1375 
Q 2550 900 2125 425 
Q 1700 -75 1500 -400 
L 1125 -50 
Q 1275 75 1275 325 
L 1275 2750 
L 925 2750 
Q 725 2750 450 2675 
L 225 2900 
z
M 4250 2050 
Q 4250 150 4275 -475 
L 3875 -625 
Q 3900 175 3900 2050 
L 2750 2050 
Q 2550 2050 2275 1975 
L 2050 2200 
L 3900 2200 
L 3900 4500 
L 3050 4500 
Q 2850 4500 2575 4425 
L 2350 4650 
L 5125 4650 
L 5475 4950 
L 5925 4500 
L 4250 4500 
L 4250 2200 
L 5300 2200 
L 5675 2575 
L 6150 2050 
L 4250 2050 
z
M 2475 4025 
L 2550 4075 
Q 3375 3275 3425 3112 
Q 3475 2950 3475 2875 
Q 3475 2700 3387 2587 
Q 3300 2475 3275 2475 
Q 3200 2475 3150 2700 
Q 3050 3000 2900 3300 
Q 2750 3600 2475 4025 
z
M 5325 4175 
L 5775 3825 
L 5600 3725 
Q 5000 2875 4575 2425 
L 4500 2475 
Q 5050 3325 5325 4175 
z
" transform="scale(0.015625)"/>
       <path id="SimSun-4f30" d="M 2900 1950 
L 2900 175 
L 5100 175 
L 5100 1950 
L 2900 1950 
z
M 2525 -575 
Q 2550 -125 2550 900 
Q 2550 1925 2525 2325 
L 2925 2100 
L 3800 2100 
L 3800 3500 
L 2850 3500 
Q 2525 3500 2250 3425 
L 2025 3650 
L 3800 3650 
Q 3800 4800 3775 5200 
L 4350 4950 
L 4150 4725 
L 4150 3650 
L 5300 3650 
L 5625 3975 
L 6100 3500 
L 4150 3500 
L 4150 2100 
L 5050 2100 
L 5300 2350 
L 5675 2025 
L 5450 1875 
L 5450 425 
Q 5450 50 5475 -350 
L 5100 -525 
L 5100 25 
L 2900 25 
L 2900 -425 
L 2525 -575 
z
M 1500 3375 
L 1825 3225 
L 1675 3050 
L 1675 525 
Q 1675 75 1700 -500 
L 1300 -700 
Q 1325 0 1325 400 
L 1325 3050 
Q 850 2375 325 1875 
L 250 1950 
Q 825 2625 1200 3412 
Q 1575 4200 1875 5100 
L 2400 4750 
L 2150 4600 
Q 1800 3925 1500 3375 
z
" transform="scale(0.015625)"/>
       <path id="SimSun-6b21" d="M 4875 2725 
L 5275 3600 
L 3225 3600 
Q 3025 3250 2800 2887 
Q 2575 2525 2075 2025 
L 2000 2100 
Q 2575 2825 2925 3750 
Q 3275 4675 3350 5225 
L 3950 4925 
Q 3750 4825 3650 4600 
Q 3550 4375 3275 3750 
L 5250 3750 
L 5525 4025 
L 5975 3550 
Q 5725 3500 5550 3350 
Q 5375 3200 4950 2675 
L 4875 2725 
z
M 4050 2900 
Q 3900 1225 3175 437 
Q 2450 -350 1450 -650 
L 1400 -575 
Q 2675 0 3175 912 
Q 3675 1825 3700 3400 
L 4275 3100 
L 4125 2975 
Q 4300 1700 4812 912 
Q 5325 125 6150 -175 
L 6125 -250 
Q 5750 -225 5575 -500 
Q 4950 -25 4537 825 
Q 4125 1675 4050 2900 
z
M 750 4950 
Q 1275 4675 1487 4450 
Q 1700 4225 1700 4075 
Q 1700 3925 1587 3775 
Q 1475 3625 1450 3625 
Q 1350 3625 1275 3950 
Q 1150 4400 700 4875 
L 750 4950 
z
M 425 1650 
Q 600 1625 750 1625 
Q 975 1625 1100 1725 
Q 1225 1825 2275 4300 
L 2375 4250 
Q 1400 1700 1350 1600 
Q 1300 1500 1300 1187 
Q 1300 875 1375 350 
Q 1450 -200 1212 -175 
Q 975 -150 925 -25 
Q 875 100 875 200 
Q 875 300 925 575 
Q 1000 975 975 1187 
Q 950 1400 425 1550 
L 425 1650 
z
" transform="scale(0.015625)"/>
       <path id="SimSun-20" d="M 0 0 
Q 0 0 0 0 
z
" transform="scale(0.015625)"/>
       <path id="SimSun-28" d="M 2900 5025 
Q 2325 4425 2037 3737 
Q 1750 3050 1750 2300 
Q 1750 1525 2037 850 
Q 2325 175 2900 -425 
L 2775 -550 
Q 2075 75 1725 787 
Q 1375 1500 1375 2300 
Q 1375 3075 1725 3787 
Q 2075 4500 2775 5150 
L 2900 5025 
z
" transform="scale(0.015625)"/>
       <path id="Cmsy10-a3" d="M 941 184 
Q 941 234 972 275 
L 2303 1600 
L 972 2931 
Q 941 2963 941 3016 
Q 941 3063 978 3103 
Q 1016 3144 1069 3144 
Q 1113 3144 1166 3103 
L 2491 1778 
L 3809 3103 
Q 3863 3144 3903 3144 
Q 3956 3144 3993 3106 
Q 4031 3069 4031 3016 
Q 4031 2963 4000 2931 
L 2669 1600 
L 4000 275 
Q 4031 234 4031 184 
Q 4031 131 3993 93 
Q 3956 56 3903 56 
Q 3856 56 3809 103 
L 2491 1422 
L 1166 103 
Q 1119 56 1069 56 
Q 1016 56 978 97 
Q 941 138 941 184 
z
" transform="scale(0.015625)"/>
       <path id="Cmr10-31" d="M 594 0 
L 594 225 
Q 1394 225 1394 428 
L 1394 3788 
Q 1063 3628 556 3628 
L 556 3853 
Q 1341 3853 1741 4263 
L 1831 4263 
Q 1853 4263 1873 4245 
Q 1894 4228 1894 4206 
L 1894 428 
Q 1894 225 2694 225 
L 2694 0 
L 594 0 
z
" transform="scale(0.015625)"/>
       <path id="Cmr10-30" d="M 1600 -141 
Q 816 -141 533 504 
Q 250 1150 250 2041 
Q 250 2597 351 3087 
Q 453 3578 754 3920 
Q 1056 4263 1600 4263 
Q 2022 4263 2290 4056 
Q 2559 3850 2700 3523 
Q 2841 3197 2892 2823 
Q 2944 2450 2944 2041 
Q 2944 1491 2842 1011 
Q 2741 531 2444 195 
Q 2147 -141 1600 -141 
z
M 1600 25 
Q 1956 25 2131 390 
Q 2306 756 2347 1200 
Q 2388 1644 2388 2144 
Q 2388 2625 2347 3031 
Q 2306 3438 2132 3767 
Q 1959 4097 1600 4097 
Q 1238 4097 1063 3765 
Q 888 3434 847 3029 
Q 806 2625 806 2144 
Q 806 1788 823 1472 
Q 841 1156 916 820 
Q 991 484 1158 254 
Q 1325 25 1600 25 
z
" transform="scale(0.015625)"/>
       <path id="Cmr10-32" d="M 319 0 
L 319 172 
Q 319 188 331 206 
L 1325 1306 
Q 1550 1550 1690 1715 
Q 1831 1881 1968 2097 
Q 2106 2313 2186 2536 
Q 2266 2759 2266 3009 
Q 2266 3272 2169 3511 
Q 2072 3750 1880 3894 
Q 1688 4038 1416 4038 
Q 1138 4038 916 3870 
Q 694 3703 603 3438 
Q 628 3444 672 3444 
Q 816 3444 917 3347 
Q 1019 3250 1019 3097 
Q 1019 2950 917 2848 
Q 816 2747 672 2747 
Q 522 2747 420 2851 
Q 319 2956 319 3097 
Q 319 3338 409 3548 
Q 500 3759 670 3923 
Q 841 4088 1055 4175 
Q 1269 4263 1509 4263 
Q 1875 4263 2190 4108 
Q 2506 3953 2690 3670 
Q 2875 3388 2875 3009 
Q 2875 2731 2753 2481 
Q 2631 2231 2440 2026 
Q 2250 1822 1953 1562 
Q 1656 1303 1563 1216 
L 838 519 
L 1453 519 
Q 1906 519 2211 526 
Q 2516 534 2534 550 
Q 2609 631 2688 1141 
L 2875 1141 
L 2694 0 
L 319 0 
z
" transform="scale(0.015625)"/>
       <path id="SimSun-29" d="M 275 5025 
L 400 5150 
Q 1100 4500 1450 3787 
Q 1800 3075 1800 2300 
Q 1800 1500 1450 787 
Q 1100 75 400 -550 
L 275 -425 
Q 850 175 1137 850 
Q 1425 1525 1425 2300 
Q 1425 3050 1137 3737 
Q 850 4425 275 5025 
z
" transform="scale(0.015625)"/>
      </defs>
      <use xlink:href="#SimSun-51fd" transform="translate(0 0.109375)"/>
      <use xlink:href="#SimSun-6570" transform="translate(100 0.109375)"/>
      <use xlink:href="#SimSun-8bc4" transform="translate(200 0.109375)"/>
      <use xlink:href="#SimSun-4f30" transform="translate(300 0.109375)"/>
      <use xlink:href="#SimSun-6b21" transform="translate(400 0.109375)"/>
      <use xlink:href="#SimSun-6570" transform="translate(500 0.109375)"/>
      <use xlink:href="#SimSun-20" transform="translate(600 0.109375)"/>
      <use xlink:href="#SimSun-28" transform="translate(650 0.109375)"/>
      <use xlink:href="#Cmsy10-a3" transform="translate(700 0.109375)"/>
      <use xlink:href="#Cmr10-31" transform="translate(777.685547 0.109375)"/>
      <use xlink:href="#Cmr10-30" transform="translate(827.685547 0.109375)"/>
      <use xlink:href="#Cmr10-32" transform="translate(882.149688 38.373438) scale(0.7)"/>
      <use xlink:href="#SimSun-29" transform="translate(923.527031 0.109375)"/>
     </g>
    </g>
   </g>
   <g id="matplotlib.axis_2">
    <g id="ytick_1">
     <g id="line2d_43">
      <defs>
       <path id="mda0e2a477d" d="M 0 0 
L 3 0 
" style="stroke: #000000; stroke-width: 0.5"/>
      </defs>
      <g>
       <use xlink:href="#mda0e2a477d" x="40.240625" y="120.6855" style="stroke: #000000; stroke-width: 0.5"/>
      </g>
     </g>
     <g id="line2d_44">
      <defs>
       <path id="m342267ceaf" d="M 0 0 
L -3 0 
" style="stroke: #000000; stroke-width: 0.5"/>
      </defs>
      <g>
       <use xlink:href="#m342267ceaf" x="204.850625" y="120.6855" style="stroke: #000000; stroke-width: 0.5"/>
      </g>
     </g>
     <g id="text_7">
      <!-- $\mathdefault{0}$ -->
      <g transform="translate(31.740625 124.259719) scale(0.1 -0.1)">
       <use xlink:href="#SimSun-30" transform="translate(0 0.859375)"/>
      </g>
     </g>
    </g>
    <g id="ytick_2">
     <g id="line2d_45">
      <g>
       <use xlink:href="#mda0e2a477d" x="40.240625" y="96.823019" style="stroke: #000000; stroke-width: 0.5"/>
      </g>
     </g>
     <g id="line2d_46">
      <g>
       <use xlink:href="#m342267ceaf" x="204.850625" y="96.823019" style="stroke: #000000; stroke-width: 0.5"/>
      </g>
     </g>
     <g id="text_8">
      <!-- $\mathdefault{500}$ -->
      <g transform="translate(21.740625 100.397238) scale(0.1 -0.1)">
       <use xlink:href="#SimSun-35" transform="translate(0 0.859375)"/>
       <use xlink:href="#SimSun-30" transform="translate(50 0.859375)"/>
       <use xlink:href="#SimSun-30" transform="translate(100 0.859375)"/>
      </g>
     </g>
    </g>
    <g id="ytick_3">
     <g id="line2d_47">
      <g>
       <use xlink:href="#mda0e2a477d" x="40.240625" y="72.960539" style="stroke: #000000; stroke-width: 0.5"/>
      </g>
     </g>
     <g id="line2d_48">
      <g>
       <use xlink:href="#m342267ceaf" x="204.850625" y="72.960539" style="stroke: #000000; stroke-width: 0.5"/>
      </g>
     </g>
     <g id="text_9">
      <!-- $\mathdefault{1000}$ -->
      <g transform="translate(16.740625 76.534758) scale(0.1 -0.1)">
       <use xlink:href="#SimSun-31" transform="translate(0 0.46875)"/>
       <use xlink:href="#SimSun-30" transform="translate(50 0.46875)"/>
       <use xlink:href="#SimSun-30" transform="translate(100 0.46875)"/>
       <use xlink:href="#SimSun-30" transform="translate(150 0.46875)"/>
      </g>
     </g>
    </g>
    <g id="ytick_4">
     <g id="line2d_49">
      <g>
       <use xlink:href="#mda0e2a477d" x="40.240625" y="49.098058" style="stroke: #000000; stroke-width: 0.5"/>
      </g>
     </g>
     <g id="line2d_50">
      <g>
       <use xlink:href="#m342267ceaf" x="204.850625" y="49.098058" style="stroke: #000000; stroke-width: 0.5"/>
      </g>
     </g>
     <g id="text_10">
      <!-- $\mathdefault{1500}$ -->
      <g transform="translate(16.740625 52.672277) scale(0.1 -0.1)">
       <use xlink:href="#SimSun-31" transform="translate(0 0.46875)"/>
       <use xlink:href="#SimSun-35" transform="translate(50 0.46875)"/>
       <use xlink:href="#SimSun-30" transform="translate(100 0.46875)"/>
       <use xlink:href="#SimSun-30" transform="translate(150 0.46875)"/>
      </g>
     </g>
    </g>
    <g id="ytick_5">
     <g id="line2d_51">
      <g>
       <use xlink:href="#mda0e2a477d" x="40.240625" y="25.235578" style="stroke: #000000; stroke-width: 0.5"/>
      </g>
     </g>
     <g id="line2d_52">
      <g>
       <use xlink:href="#m342267ceaf" x="204.850625" y="25.235578" style="stroke: #000000; stroke-width: 0.5"/>
      </g>
     </g>
     <g id="text_11">
      <!-- $\mathdefault{2000}$ -->
      <g transform="translate(16.740625 28.809796) scale(0.1 -0.1)">
       <use xlink:href="#SimSun-32" transform="translate(0 0.859375)"/>
       <use xlink:href="#SimSun-30" transform="translate(50 0.859375)"/>
       <use xlink:href="#SimSun-30" transform="translate(100 0.859375)"/>
       <use xlink:href="#SimSun-30" transform="translate(150 0.859375)"/>
      </g>
     </g>
    </g>
    <g id="ytick_6">
     <g id="line2d_53">
      <defs>
       <path id="md04c79f71f" d="M 0 0 
L 1.5 0 
" style="stroke: #000000; stroke-width: 0.5"/>
      </defs>
      <g>
       <use xlink:href="#md04c79f71f" x="40.240625" y="125.457996" style="stroke: #000000; stroke-width: 0.5"/>
      </g>
     </g>
     <g id="line2d_54">
      <defs>
       <path id="m72470f4d6c" d="M 0 0 
L -1.5 0 
" style="stroke: #000000; stroke-width: 0.5"/>
      </defs>
      <g>
       <use xlink:href="#m72470f4d6c" x="204.850625" y="125.457996" style="stroke: #000000; stroke-width: 0.5"/>
      </g>
     </g>
    </g>
    <g id="ytick_7">
     <g id="line2d_55">
      <g>
       <use xlink:href="#md04c79f71f" x="40.240625" y="115.913004" style="stroke: #000000; stroke-width: 0.5"/>
      </g>
     </g>
     <g id="line2d_56">
      <g>
       <use xlink:href="#m72470f4d6c" x="204.850625" y="115.913004" style="stroke: #000000; stroke-width: 0.5"/>
      </g>
     </g>
    </g>
    <g id="ytick_8">
     <g id="line2d_57">
      <g>
       <use xlink:href="#md04c79f71f" x="40.240625" y="111.140508" style="stroke: #000000; stroke-width: 0.5"/>
      </g>
     </g>
     <g id="line2d_58">
      <g>
       <use xlink:href="#m72470f4d6c" x="204.850625" y="111.140508" style="stroke: #000000; stroke-width: 0.5"/>
      </g>
     </g>
    </g>
    <g id="ytick_9">
     <g id="line2d_59">
      <g>
       <use xlink:href="#md04c79f71f" x="40.240625" y="106.368012" style="stroke: #000000; stroke-width: 0.5"/>
      </g>
     </g>
     <g id="line2d_60">
      <g>
       <use xlink:href="#m72470f4d6c" x="204.850625" y="106.368012" style="stroke: #000000; stroke-width: 0.5"/>
      </g>
     </g>
    </g>
    <g id="ytick_10">
     <g id="line2d_61">
      <g>
       <use xlink:href="#md04c79f71f" x="40.240625" y="101.595516" style="stroke: #000000; stroke-width: 0.5"/>
      </g>
     </g>
     <g id="line2d_62">
      <g>
       <use xlink:href="#m72470f4d6c" x="204.850625" y="101.595516" style="stroke: #000000; stroke-width: 0.5"/>
      </g>
     </g>
    </g>
    <g id="ytick_11">
     <g id="line2d_63">
      <g>
       <use xlink:href="#md04c79f71f" x="40.240625" y="92.050523" style="stroke: #000000; stroke-width: 0.5"/>
      </g>
     </g>
     <g id="line2d_64">
      <g>
       <use xlink:href="#m72470f4d6c" x="204.850625" y="92.050523" style="stroke: #000000; stroke-width: 0.5"/>
      </g>
     </g>
    </g>
    <g id="ytick_12">
     <g id="line2d_65">
      <g>
       <use xlink:href="#md04c79f71f" x="40.240625" y="87.278027" style="stroke: #000000; stroke-width: 0.5"/>
      </g>
     </g>
     <g id="line2d_66">
      <g>
       <use xlink:href="#m72470f4d6c" x="204.850625" y="87.278027" style="stroke: #000000; stroke-width: 0.5"/>
      </g>
     </g>
    </g>
    <g id="ytick_13">
     <g id="line2d_67">
      <g>
       <use xlink:href="#md04c79f71f" x="40.240625" y="82.505531" style="stroke: #000000; stroke-width: 0.5"/>
      </g>
     </g>
     <g id="line2d_68">
      <g>
       <use xlink:href="#m72470f4d6c" x="204.850625" y="82.505531" style="stroke: #000000; stroke-width: 0.5"/>
      </g>
     </g>
    </g>
    <g id="ytick_14">
     <g id="line2d_69">
      <g>
       <use xlink:href="#md04c79f71f" x="40.240625" y="77.733035" style="stroke: #000000; stroke-width: 0.5"/>
      </g>
     </g>
     <g id="line2d_70">
      <g>
       <use xlink:href="#m72470f4d6c" x="204.850625" y="77.733035" style="stroke: #000000; stroke-width: 0.5"/>
      </g>
     </g>
    </g>
    <g id="ytick_15">
     <g id="line2d_71">
      <g>
       <use xlink:href="#md04c79f71f" x="40.240625" y="68.188043" style="stroke: #000000; stroke-width: 0.5"/>
      </g>
     </g>
     <g id="line2d_72">
      <g>
       <use xlink:href="#m72470f4d6c" x="204.850625" y="68.188043" style="stroke: #000000; stroke-width: 0.5"/>
      </g>
     </g>
    </g>
    <g id="ytick_16">
     <g id="line2d_73">
      <g>
       <use xlink:href="#md04c79f71f" x="40.240625" y="63.415547" style="stroke: #000000; stroke-width: 0.5"/>
      </g>
     </g>
     <g id="line2d_74">
      <g>
       <use xlink:href="#m72470f4d6c" x="204.850625" y="63.415547" style="stroke: #000000; stroke-width: 0.5"/>
      </g>
     </g>
    </g>
    <g id="ytick_17">
     <g id="line2d_75">
      <g>
       <use xlink:href="#md04c79f71f" x="40.240625" y="58.643051" style="stroke: #000000; stroke-width: 0.5"/>
      </g>
     </g>
     <g id="line2d_76">
      <g>
       <use xlink:href="#m72470f4d6c" x="204.850625" y="58.643051" style="stroke: #000000; stroke-width: 0.5"/>
      </g>
     </g>
    </g>
    <g id="ytick_18">
     <g id="line2d_77">
      <g>
       <use xlink:href="#md04c79f71f" x="40.240625" y="53.870554" style="stroke: #000000; stroke-width: 0.5"/>
      </g>
     </g>
     <g id="line2d_78">
      <g>
       <use xlink:href="#m72470f4d6c" x="204.850625" y="53.870554" style="stroke: #000000; stroke-width: 0.5"/>
      </g>
     </g>
    </g>
    <g id="ytick_19">
     <g id="line2d_79">
      <g>
       <use xlink:href="#md04c79f71f" x="40.240625" y="44.325562" style="stroke: #000000; stroke-width: 0.5"/>
      </g>
     </g>
     <g id="line2d_80">
      <g>
       <use xlink:href="#m72470f4d6c" x="204.850625" y="44.325562" style="stroke: #000000; stroke-width: 0.5"/>
      </g>
     </g>
    </g>
    <g id="ytick_20">
     <g id="line2d_81">
      <g>
       <use xlink:href="#md04c79f71f" x="40.240625" y="39.553066" style="stroke: #000000; stroke-width: 0.5"/>
      </g>
     </g>
     <g id="line2d_82">
      <g>
       <use xlink:href="#m72470f4d6c" x="204.850625" y="39.553066" style="stroke: #000000; stroke-width: 0.5"/>
      </g>
     </g>
    </g>
    <g id="ytick_21">
     <g id="line2d_83">
      <g>
       <use xlink:href="#md04c79f71f" x="40.240625" y="34.78057" style="stroke: #000000; stroke-width: 0.5"/>
      </g>
     </g>
     <g id="line2d_84">
      <g>
       <use xlink:href="#m72470f4d6c" x="204.850625" y="34.78057" style="stroke: #000000; stroke-width: 0.5"/>
      </g>
     </g>
    </g>
    <g id="ytick_22">
     <g id="line2d_85">
      <g>
       <use xlink:href="#md04c79f71f" x="40.240625" y="30.008074" style="stroke: #000000; stroke-width: 0.5"/>
      </g>
     </g>
     <g id="line2d_86">
      <g>
       <use xlink:href="#m72470f4d6c" x="204.850625" y="30.008074" style="stroke: #000000; stroke-width: 0.5"/>
      </g>
     </g>
    </g>
    <g id="ytick_23">
     <g id="line2d_87">
      <g>
       <use xlink:href="#md04c79f71f" x="40.240625" y="20.463082" style="stroke: #000000; stroke-width: 0.5"/>
      </g>
     </g>
     <g id="line2d_88">
      <g>
       <use xlink:href="#m72470f4d6c" x="204.850625" y="20.463082" style="stroke: #000000; stroke-width: 0.5"/>
      </g>
     </g>
    </g>
    <g id="ytick_24">
     <g id="line2d_89">
      <g>
       <use xlink:href="#md04c79f71f" x="40.240625" y="15.690586" style="stroke: #000000; stroke-width: 0.5"/>
      </g>
     </g>
     <g id="line2d_90">
      <g>
       <use xlink:href="#m72470f4d6c" x="204.850625" y="15.690586" style="stroke: #000000; stroke-width: 0.5"/>
      </g>
     </g>
    </g>
    <g id="ytick_25">
     <g id="line2d_91">
      <g>
       <use xlink:href="#md04c79f71f" x="40.240625" y="10.918089" style="stroke: #000000; stroke-width: 0.5"/>
      </g>
     </g>
     <g id="line2d_92">
      <g>
       <use xlink:href="#m72470f4d6c" x="204.850625" y="10.918089" style="stroke: #000000; stroke-width: 0.5"/>
      </g>
     </g>
    </g>
    <g id="ytick_26">
     <g id="line2d_93">
      <g>
       <use xlink:href="#md04c79f71f" x="40.240625" y="6.145593" style="stroke: #000000; stroke-width: 0.5"/>
      </g>
     </g>
     <g id="line2d_94">
      <g>
       <use xlink:href="#m72470f4d6c" x="204.850625" y="6.145593" style="stroke: #000000; stroke-width: 0.5"/>
      </g>
     </g>
    </g>
    <g id="text_12">
     <!-- 超体积 (HV) -->
     <g transform="translate(11.451562 92.4305) rotate(-90) scale(0.1 -0.1)">
      <defs>
       <path id="SimSun-8d85" d="M 1175 1875 
Q 1100 1275 1050 975 
Q 1325 700 1675 425 
L 1675 2725 
L 1125 2725 
Q 800 2725 525 2650 
L 300 2875 
L 1625 2875 
L 1625 3925 
L 1325 3925 
Q 1000 3925 725 3850 
L 500 4075 
L 1625 4075 
Q 1625 4825 1600 5225 
L 2200 4950 
L 1950 4750 
L 1950 4075 
L 2400 4075 
L 2675 4350 
L 3075 3925 
L 1950 3925 
L 1950 2875 
L 2425 2875 
L 2725 3175 
L 3150 2725 
L 2000 2725 
L 2000 1650 
L 2525 1650 
L 2825 1925 
L 3225 1500 
L 2000 1500 
L 2000 250 
Q 2700 -75 3537 -100 
Q 4375 -125 4975 -125 
Q 5675 -125 6125 -100 
L 6125 -200 
Q 5750 -275 5675 -550 
Q 4500 -525 3575 -437 
Q 2650 -350 2062 -62 
Q 1475 225 1025 850 
Q 850 75 300 -600 
L 225 -550 
Q 600 150 712 862 
Q 825 1575 825 2275 
L 1375 2025 
L 1175 1875 
z
M 3800 2025 
L 3800 800 
L 5250 800 
L 5250 2025 
L 3800 2025 
z
M 4550 3150 
Q 4875 3100 5025 3100 
Q 5100 3100 5187 3125 
Q 5275 3150 5312 3450 
Q 5350 3750 5400 4475 
L 4350 4475 
Q 4300 2975 2900 2275 
L 2850 2375 
Q 3925 3125 3950 4475 
Q 3625 4475 3350 4400 
L 3125 4625 
L 5375 4625 
L 5600 4875 
L 5925 4550 
L 5750 4400 
Q 5700 3625 5650 3325 
Q 5600 3025 5500 2875 
Q 5400 2725 5125 2600 
Q 5000 2900 4550 3050 
L 4550 3150 
z
M 3425 2425 
L 3825 2175 
L 5200 2175 
L 5450 2450 
L 5825 2075 
L 5575 1925 
Q 5575 850 5600 425 
L 5250 275 
L 5250 650 
L 3800 650 
L 3800 300 
L 3425 100 
Q 3450 850 3450 1387 
Q 3450 1925 3425 2425 
z
" transform="scale(0.015625)"/>
       <path id="SimSun-4f53" d="M 1275 -600 
Q 1300 200 1300 650 
L 1300 3225 
Q 900 2575 325 2000 
L 250 2075 
Q 825 2800 1237 3812 
Q 1650 4825 1725 5225 
L 2250 4875 
L 2050 4775 
Q 1650 3950 1425 3475 
L 1825 3250 
L 1625 3075 
L 1625 -400 
L 1275 -600 
z
M 4100 575 
Q 4100 100 4125 -400 
L 3725 -575 
Q 3750 225 3750 500 
L 3750 825 
L 3350 825 
Q 3025 825 2750 750 
L 2525 975 
L 3750 975 
L 3750 3375 
Q 3375 2450 2875 1775 
Q 2375 1100 1800 650 
L 1725 725 
Q 2200 1175 2687 2000 
Q 3175 2825 3425 3575 
L 2875 3575 
Q 2550 3575 2275 3500 
L 2050 3725 
L 3750 3725 
L 3750 4475 
Q 3750 4725 3725 5200 
L 4325 4925 
L 4100 4750 
L 4100 3725 
L 5225 3725 
L 5550 4050 
L 6025 3575 
L 4325 3575 
Q 4675 2525 5187 1887 
Q 5700 1250 6125 1100 
L 6125 1000 
Q 5725 1000 5600 775 
Q 5250 1050 4837 1850 
Q 4425 2650 4200 3575 
L 4100 3575 
L 4100 975 
L 4600 975 
L 4900 1275 
L 5350 825 
L 4100 825 
L 4100 575 
z
" transform="scale(0.015625)"/>
       <path id="SimSun-79ef" d="M 3125 1750 
Q 3150 2475 3150 3225 
Q 3150 3975 3125 4725 
L 3500 4525 
L 5225 4525 
L 5475 4775 
L 5850 4400 
L 5600 4250 
Q 5600 2300 5625 1975 
L 5275 1850 
L 5275 2175 
L 3475 2175 
L 3475 1875 
L 3125 1750 
z
M 3475 4375 
L 3475 2325 
L 5275 2325 
L 5275 4375 
L 3475 4375 
z
M 3825 1700 
L 4300 1300 
L 4075 1225 
Q 3125 -75 2200 -550 
L 2175 -450 
Q 2800 50 3225 625 
Q 3650 1200 3825 1700 
z
M 4700 1600 
Q 5725 650 5850 362 
Q 5975 75 5975 -75 
Q 5975 -225 5900 -337 
Q 5825 -450 5775 -450 
Q 5725 -450 5650 -250 
Q 5525 75 5350 450 
Q 5175 825 4650 1525 
L 4700 1600 
z
M 1875 2575 
Q 1875 225 1900 -400 
L 1525 -625 
Q 1550 125 1550 2350 
Q 1025 1275 300 625 
L 250 700 
Q 625 1200 962 1862 
Q 1300 2525 1500 3200 
L 1125 3200 
Q 800 3200 525 3125 
L 300 3350 
L 1550 3350 
L 1550 4475 
Q 900 4375 525 4350 
L 525 4450 
Q 1075 4550 1525 4712 
Q 1975 4875 2375 5150 
L 2725 4700 
Q 2425 4700 1875 4550 
L 1875 3350 
L 2250 3350 
L 2550 3650 
L 2975 3200 
L 1875 3200 
L 1875 2675 
Q 2475 2400 2612 2212 
Q 2750 2025 2750 1925 
Q 2750 1800 2662 1675 
Q 2575 1550 2550 1550 
Q 2450 1550 2375 1800 
Q 2250 2175 1875 2575 
z
" transform="scale(0.015625)"/>
       <path id="SimSun-48" d="M 2725 450 
Q 2725 350 2787 300 
Q 2850 250 2950 250 
L 3075 250 
L 3075 100 
L 1975 100 
L 1975 250 
L 2100 250 
Q 2225 250 2275 300 
Q 2325 350 2325 450 
L 2325 2275 
L 850 2275 
L 850 450 
Q 850 350 912 300 
Q 975 250 1075 250 
L 1200 250 
L 1200 100 
L 100 100 
L 100 250 
L 225 250 
Q 350 250 400 300 
Q 450 350 450 450 
L 450 4025 
Q 450 4125 400 4175 
Q 350 4225 225 4225 
L 125 4225 
L 125 4375 
L 1175 4375 
L 1175 4225 
L 1075 4225 
Q 975 4225 912 4175 
Q 850 4125 850 4025 
L 850 2425 
L 2325 2425 
L 2325 4025 
Q 2325 4125 2275 4175 
Q 2225 4225 2100 4225 
L 2000 4225 
L 2000 4375 
L 3050 4375 
L 3050 4225 
L 2950 4225 
Q 2850 4225 2787 4175 
Q 2725 4125 2725 4025 
L 2725 450 
z
" transform="scale(0.015625)"/>
       <path id="SimSun-56" d="M 2125 4225 
L 2125 4375 
L 3025 4375 
L 3025 4225 
L 2925 4225 
Q 2825 4225 2737 4150 
Q 2650 4075 2600 3875 
L 1575 100 
L 1425 100 
L 500 3875 
Q 475 4050 412 4137 
Q 350 4225 225 4225 
L 100 4225 
L 100 4375 
L 1175 4375 
L 1175 4225 
L 1075 4225 
Q 950 4225 912 4150 
Q 875 4075 900 3950 
L 1600 1025 
L 1650 1025 
L 2400 3875 
Q 2425 3975 2425 4025 
Q 2425 4100 2387 4162 
Q 2350 4225 2200 4225 
L 2125 4225 
z
M 825 4225 
L 825 4225 
z
M 425 4225 
L 425 4225 
z
M 2700 4225 
L 2700 4225 
z
M 2500 4225 
L 2500 4225 
z
" transform="scale(0.015625)"/>
      </defs>
      <use xlink:href="#SimSun-8d85"/>
      <use xlink:href="#SimSun-4f53" transform="translate(100 0)"/>
      <use xlink:href="#SimSun-79ef" transform="translate(200 0)"/>
      <use xlink:href="#SimSun-20" transform="translate(300 0)"/>
      <use xlink:href="#SimSun-28" transform="translate(350 0)"/>
      <use xlink:href="#SimSun-48" transform="translate(400 0)"/>
      <use xlink:href="#SimSun-56" transform="translate(450 0)"/>
      <use xlink:href="#SimSun-29" transform="translate(500 0)"/>
     </g>
    </g>
   </g>
   <g id="line2d_95">
    <path d="M 47.722898 120.6855 
L 61.258667 120.6855 
L 62.010655 119.894008 
L 62.762642 119.894008 
L 63.514629 110.436554 
L 65.018604 110.43373 
L 65.770591 108.951749 
L 66.522578 108.951749 
L 67.274565 105.215774 
L 68.026552 105.215774 
L 68.77854 105.09433 
L 69.530527 104.382088 
L 74.04245 104.2948 
L 75.546424 80.611746 
L 76.298412 79.24619 
L 77.050399 79.088421 
L 77.802386 78.517518 
L 78.554373 71.471926 
L 80.058348 71.431148 
L 80.810335 71.278381 
L 81.562322 70.985149 
L 82.314309 70.095764 
L 83.066297 69.899526 
L 83.818284 68.00652 
L 84.570271 67.696771 
L 85.322258 64.322147 
L 86.826233 64.204354 
L 87.57822 62.947948 
L 88.330207 62.060155 
L 89.082194 56.823099 
L 89.834181 56.273872 
L 90.586169 53.797294 
L 91.338156 53.284989 
L 92.090143 51.880923 
L 92.84213 50.006236 
L 93.594117 44.838228 
L 94.346105 43.782126 
L 95.098092 40.013227 
L 97.354054 39.74344 
L 98.106041 37.56419 
L 98.858028 37.550839 
L 101.11399 36.6727 
L 101.865977 36.201416 
L 102.617964 34.710024 
L 103.369951 34.696454 
L 104.873926 34.464378 
L 105.625913 34.361376 
L 106.3779 32.601656 
L 107.129887 31.736427 
L 107.881874 29.377124 
L 108.633862 28.542071 
L 110.137836 28.445646 
L 110.889823 28.271161 
L 112.393798 28.262609 
L 113.145785 27.671046 
L 113.897772 27.561271 
L 114.649759 26.267843 
L 115.401747 26.262937 
L 116.905721 24.487736 
L 117.657708 24.18345 
L 119.161683 24.161862 
L 119.91367 23.998505 
L 122.921619 23.880354 
L 123.673606 23.228313 
L 125.17758 23.104117 
L 126.681555 22.26449 
L 131.193478 22.048801 
L 131.945465 21.35442 
L 132.697452 21.00254 
L 134.953414 20.920796 
L 135.705401 17.8634 
L 136.457388 17.840682 
L 137.209376 17.561387 
L 139.465337 17.48771 
L 140.217324 17.278647 
L 142.473286 17.247914 
L 143.97726 16.309367 
L 152.24912 16.230653 
L 153.001107 16.104838 
L 159.768992 16.051589 
L 160.520979 15.680061 
L 161.272966 15.675236 
L 162.024953 14.689263 
L 165.032902 14.607362 
L 165.78489 14.550343 
L 166.536877 14.340638 
L 167.288864 13.875304 
L 168.040851 13.870566 
L 168.792838 10.268932 
L 169.544826 10.07328 
L 170.296813 9.750071 
L 177.064698 9.569443 
L 178.568672 9.5196 
L 179.320659 9.28233 
L 197.368352 9.175839 
L 197.368352 9.175839 
" clip-path="url(#p32850b2e74)" style="fill: none; stroke: #0c5da5; stroke-linecap: square"/>
   </g>
   <g id="patch_3">
    <path d="M 40.240625 126.261 
L 40.240625 3.6 
" style="fill: none; stroke: #000000; stroke-width: 0.5; stroke-linejoin: miter; stroke-linecap: square"/>
   </g>
   <g id="patch_4">
    <path d="M 204.850625 126.261 
L 204.850625 3.6 
" style="fill: none; stroke: #000000; stroke-width: 0.5; stroke-linejoin: miter; stroke-linecap: square"/>
   </g>
   <g id="patch_5">
    <path d="M 40.240625 126.261 
L 204.850625 126.261 
" style="fill: none; stroke: #000000; stroke-width: 0.5; stroke-linejoin: miter; stroke-linecap: square"/>
   </g>
   <g id="patch_6">
    <path d="M 40.240625 3.6 
L 204.850625 3.6 
" style="fill: none; stroke: #000000; stroke-width: 0.5; stroke-linejoin: miter; stroke-linecap: square"/>
   </g>
  </g>
 </g>
 <defs>
  <clipPath id="p32850b2e74">
   <rect x="40.240625" y="3.6" width="164.61" height="122.661"/>
  </clipPath>
 </defs>
</svg>
